<mxfile host="app.diagrams.net" modified="2022-08-24T07:49:36.975Z" agent="5.0 (Macintosh; Intel Mac OS X 10_15_7) AppleWebKit/537.36 (KHTML, like Gecko) Chrome/104.0.0.0 Safari/537.36" etag="tqqaIaubAefFeuEOmoDB" version="20.2.6" type="github">
  <diagram id="tMzKZlaHq2V3mYspbbGZ" name="第 1 页">
    <mxGraphModel dx="1426" dy="624" grid="1" gridSize="10" guides="1" tooltips="1" connect="1" arrows="1" fold="1" page="1" pageScale="1" pageWidth="827" pageHeight="1169" math="0" shadow="0">
      <root>
        <mxCell id="0" />
        <mxCell id="1" parent="0" />
        <mxCell id="cOp7ZHG7kyzDMP_RtQFX-9" style="edgeStyle=orthogonalEdgeStyle;rounded=0;orthogonalLoop=1;jettySize=auto;html=1;entryX=0;entryY=0.5;entryDx=0;entryDy=0;fontSize=24;strokeColor=#3399FF;" edge="1" parent="1" source="cOp7ZHG7kyzDMP_RtQFX-3" target="cOp7ZHG7kyzDMP_RtQFX-6">
          <mxGeometry relative="1" as="geometry" />
        </mxCell>
        <mxCell id="cOp7ZHG7kyzDMP_RtQFX-13" value="上传产品" style="edgeLabel;html=1;align=center;verticalAlign=middle;resizable=0;points=[];fontSize=24;" vertex="1" connectable="0" parent="cOp7ZHG7kyzDMP_RtQFX-9">
          <mxGeometry x="-0.0667" y="-1" relative="1" as="geometry">
            <mxPoint as="offset" />
          </mxGeometry>
        </mxCell>
        <mxCell id="cOp7ZHG7kyzDMP_RtQFX-3" value="" style="verticalLabelPosition=bottom;html=1;verticalAlign=top;align=center;strokeColor=none;fillColor=#97D077;shape=mxgraph.azure.user;" vertex="1" parent="1">
          <mxGeometry x="70" y="250" width="80" height="90" as="geometry" />
        </mxCell>
        <mxCell id="cOp7ZHG7kyzDMP_RtQFX-5" value="&lt;font style=&quot;font-size: 24px;&quot;&gt;管理员&lt;/font&gt;" style="text;html=1;align=center;verticalAlign=middle;resizable=0;points=[];autosize=1;strokeColor=none;fillColor=none;" vertex="1" parent="1">
          <mxGeometry x="60" y="350" width="100" height="40" as="geometry" />
        </mxCell>
        <mxCell id="cOp7ZHG7kyzDMP_RtQFX-6" value="正常状态" style="rounded=1;whiteSpace=wrap;html=1;fontSize=24;fillColor=none;strokeColor=#97D077;" vertex="1" parent="1">
          <mxGeometry x="380" y="270" width="110" height="50" as="geometry" />
        </mxCell>
        <mxCell id="cOp7ZHG7kyzDMP_RtQFX-7" value="暂停状态" style="rounded=1;whiteSpace=wrap;html=1;fontSize=24;fillColor=none;strokeColor=#97D077;" vertex="1" parent="1">
          <mxGeometry x="680" y="210" width="110" height="50" as="geometry" />
        </mxCell>
        <mxCell id="cOp7ZHG7kyzDMP_RtQFX-8" value="结束状态" style="rounded=1;whiteSpace=wrap;html=1;fontSize=24;fillColor=none;strokeColor=#97D077;" vertex="1" parent="1">
          <mxGeometry x="680" y="340" width="110" height="50" as="geometry" />
        </mxCell>
        <mxCell id="cOp7ZHG7kyzDMP_RtQFX-11" value="" style="endArrow=classic;html=1;rounded=0;fontSize=24;strokeColor=#3399FF;exitX=1;exitY=0.5;exitDx=0;exitDy=0;entryX=-0.027;entryY=0.64;entryDx=0;entryDy=0;entryPerimeter=0;" edge="1" parent="1" source="cOp7ZHG7kyzDMP_RtQFX-6" target="cOp7ZHG7kyzDMP_RtQFX-7">
          <mxGeometry width="50" height="50" relative="1" as="geometry">
            <mxPoint x="380" y="330" as="sourcePoint" />
            <mxPoint x="430" y="280" as="targetPoint" />
          </mxGeometry>
        </mxCell>
        <mxCell id="cOp7ZHG7kyzDMP_RtQFX-14" value="出现问题" style="edgeLabel;html=1;align=center;verticalAlign=middle;resizable=0;points=[];fontSize=24;" vertex="1" connectable="0" parent="cOp7ZHG7kyzDMP_RtQFX-11">
          <mxGeometry x="-0.022" y="-2" relative="1" as="geometry">
            <mxPoint as="offset" />
          </mxGeometry>
        </mxCell>
        <mxCell id="cOp7ZHG7kyzDMP_RtQFX-12" value="" style="endArrow=classic;html=1;rounded=0;fontSize=24;strokeColor=#3399FF;exitX=1;exitY=0.5;exitDx=0;exitDy=0;entryX=0;entryY=0.5;entryDx=0;entryDy=0;" edge="1" parent="1" source="cOp7ZHG7kyzDMP_RtQFX-6" target="cOp7ZHG7kyzDMP_RtQFX-8">
          <mxGeometry width="50" height="50" relative="1" as="geometry">
            <mxPoint x="410" y="320" as="sourcePoint" />
            <mxPoint x="460" y="270" as="targetPoint" />
          </mxGeometry>
        </mxCell>
        <mxCell id="cOp7ZHG7kyzDMP_RtQFX-15" value="推广完成" style="edgeLabel;html=1;align=center;verticalAlign=middle;resizable=0;points=[];fontSize=24;" vertex="1" connectable="0" parent="cOp7ZHG7kyzDMP_RtQFX-12">
          <mxGeometry x="-0.0649" y="-2" relative="1" as="geometry">
            <mxPoint as="offset" />
          </mxGeometry>
        </mxCell>
      </root>
    </mxGraphModel>
  </diagram>
</mxfile>
